<svg width="1319" height="128" viewBox="0 0 1319 128" fill="none" xmlns="http://www.w3.org/2000/svg">
<path fill-rule="evenodd" clip-rule="evenodd" d="M1167.51 127.112C1160 127.112 1153.55 125.704 1148.15 122.888C1142.76 119.955 1138.3 115.789 1134.78 110.392C1131.26 104.995 1128.68 98.3654 1127.03 90.504C1125.39 82.6427 1124.57 73.6667 1124.57 63.576C1124.57 53.6027 1125.39 44.6854 1127.03 36.824C1128.68 28.8454 1131.26 22.1574 1134.78 16.76C1138.3 11.3627 1142.76 7.25604 1148.15 4.44003C1153.55 1.5067 1160 0.0400391 1167.51 0.0400391C1175.02 0.0400391 1181.48 1.5067 1186.87 4.44003C1192.27 7.25604 1196.73 11.3627 1200.25 16.76C1203.77 22.1574 1206.35 28.8454 1207.99 36.824C1209.64 44.6854 1210.46 53.6027 1210.46 63.576C1210.46 73.6667 1209.64 82.6427 1207.99 90.504C1206.35 98.3654 1203.77 104.995 1200.25 110.392C1196.73 115.789 1192.27 119.955 1186.87 122.888C1181.48 125.704 1175.02 127.112 1167.51 127.112ZM1167.51 114.264C1172.44 114.264 1176.61 113.325 1180.01 111.448C1183.41 109.453 1186.23 106.696 1188.46 103.176C1190.69 99.656 1192.27 95.432 1193.21 90.504C1194.26 85.4587 1194.79 79.8267 1194.79 73.608V53.544C1194.79 47.4427 1194.26 41.8694 1193.21 36.824C1192.27 31.7787 1190.69 27.496 1188.46 23.976C1186.23 20.456 1183.41 17.7574 1180.01 15.88C1176.61 13.8854 1172.44 12.888 1167.51 12.888C1162.58 12.888 1158.42 13.8854 1155.02 15.88C1151.61 17.7574 1148.8 20.456 1146.57 23.976C1144.34 27.496 1142.7 31.7787 1141.64 36.824C1140.7 41.8694 1140.23 47.4427 1140.23 53.544V73.608C1140.23 79.8267 1140.7 85.4587 1141.64 90.504C1142.7 95.432 1144.34 99.656 1146.57 103.176C1148.8 106.696 1151.61 109.453 1155.02 111.448C1158.42 113.325 1162.58 114.264 1167.51 114.264ZM1255.97 20.9841H1254.74V125H1241.36V2.1521H1262.31L1304.2 105.112H1305.43V2.1521H1318.8V125H1297.86L1255.97 20.9841ZM1016.93 113.208V125H1092.96V113.208H1062.33V13.9441H1092.96V2.1521H1016.93V13.9441H1047.55V113.208H1016.93ZM949.762 15.0001V125H934.978V15.0001H893.97V2.1521H990.77V15.0001H949.762ZM791.783 113.208V125H867.815V113.208H837.191V13.9441H867.815V2.1521H791.783V13.9441H822.407V113.208H791.783ZM681.147 2.1521H715.467C730.486 2.1521 741.691 7.31477 749.083 17.6401C756.476 27.9654 760.171 43.2774 760.171 63.5761C760.171 83.8748 756.476 99.1868 749.083 109.512C741.691 119.837 730.486 125 715.467 125H681.147V2.1521ZM714.763 112.152C724.619 112.152 732.012 108.749 736.939 101.944C741.985 95.1388 744.507 85.5174 744.507 73.0801V54.0721C744.507 41.6348 741.985 32.0134 736.939 25.2081C732.012 18.4028 724.619 15.0001 714.763 15.0001H695.932V112.152H714.763ZM567.696 2.1521V125H643.376V112.152H582.48V69.2081H641.264V56.3601H582.48V15.0001H643.376V2.1521H567.696ZM386.906 15.0001V125H372.122V15.0001H331.114V2.1521H427.914V15.0001H386.906ZM241.599 20.9841H242.831L284.718 125H305.663V2.1521H292.286V105.112H291.054L249.167 2.1521H228.223V125H241.599V20.9841ZM116.355 125V113.208H146.979V13.9441H116.355V2.1521H192.387V13.9441H161.763V113.208H192.387V125H116.355ZM69.08 24.5041V63.4001V125H82.632V2.1521H64.328L42.68 56.3601H41.624L19.976 2.1521H0.968002V125H14.52V63.4001V24.5041H15.928L41.8 87.6881L67.672 24.5041H69.08Z" fill="#E2E8F0"/>
</svg>
