<svg width="1318" height="133" viewBox="0 0 1318 133" fill="none" xmlns="http://www.w3.org/2000/svg">
<path d="M62.118 130V15.6L43.814 88.112H32.022L13.718 15.6V130H0.34203V2.75199H23.046L38.534 67.696L52.79 2.75199H75.494V130H62.118ZM119.065 130V117.68H143.001V15.072H119.065V2.75199H182.601V15.072H158.841V117.68H182.601V130H119.065ZM278.796 130L239.548 19.824V130H226.172V2.75199H248.7L287.948 112.928V2.75199H301.324V130H278.796ZM384.495 15.776V130H368.831V15.776H330.111V2.75199H423.215V15.776H384.495ZM566.853 130V2.75199H641.653V15.6H582.341V57.84H639.189V70.688H582.341V117.152H643.941V130H566.853ZM758.792 65.408C758.792 76.672 757.736 86.4107 755.624 94.624C753.629 102.72 750.285 109.408 745.592 114.688C741.016 119.968 734.973 123.84 727.464 126.304C720.072 128.768 711.037 130 700.36 130H678.008V2.75199H701.768C711.389 2.75199 719.779 3.80799 726.936 5.91999C734.093 8.03199 740.019 11.552 744.712 16.48C749.405 21.408 752.925 27.8613 755.272 35.84C757.619 43.8187 758.792 53.6747 758.792 65.408ZM742.776 65.408C742.776 56.4907 742.013 48.864 740.488 42.528C738.963 36.192 736.557 31.0293 733.272 27.04C730.104 22.9333 725.997 20 720.952 18.24C716.024 16.3627 710.157 15.424 703.352 15.424H693.672V117.152H701.592C708.632 117.152 714.733 116.331 719.896 114.688C725.176 113.045 729.459 110.288 732.744 106.416C736.147 102.427 738.669 97.1467 740.312 90.576C741.955 83.888 742.776 75.4987 742.776 65.408ZM796.555 130V117.68H820.491V15.072H796.555V2.75199H860.091V15.072H836.331V117.68H860.091V130H796.555ZM949.07 15.776V130H933.406V15.776H894.686V2.75199H987.79V15.776H949.07ZM1022.39 130V117.68H1046.32V15.072H1022.39V2.75199H1085.92V15.072H1062.16V117.68H1085.92V130H1022.39ZM1210.28 65.936C1210.28 74.032 1209.69 82.0693 1208.52 90.048C1207.34 97.9093 1205.17 104.949 1202 111.168C1198.84 117.387 1194.44 122.432 1188.8 126.304C1183.17 130.176 1175.9 132.112 1166.98 132.112C1159 132.112 1152.25 130.704 1146.74 127.888C1141.34 125.072 1136.94 120.907 1133.54 115.392C1130.14 109.76 1127.67 102.837 1126.15 94.624C1124.62 86.2933 1123.86 76.7307 1123.86 65.936C1123.86 55.9627 1124.68 46.928 1126.32 38.832C1128.08 30.6187 1130.72 23.696 1134.24 18.064C1137.88 12.3147 1142.4 7.91466 1147.8 4.864C1153.19 1.69599 1159.59 0.111994 1166.98 0.111994C1176.01 0.111994 1183.35 1.81333 1188.98 5.21599C1194.61 8.50132 1199.01 13.0773 1202.18 18.944C1205.35 24.8107 1207.46 31.792 1208.52 39.888C1209.69 47.8667 1210.28 56.5493 1210.28 65.936ZM1193.73 65.936C1193.73 59.1307 1193.56 52.56 1193.2 46.224C1192.85 39.7707 1191.8 34.08 1190.04 29.152C1188.28 24.224 1185.58 20.2933 1181.94 17.36C1178.42 14.4267 1173.43 12.96 1166.98 12.96C1161.47 12.96 1156.95 14.368 1153.43 17.184C1150.03 20 1147.33 23.8133 1145.33 28.624C1143.45 33.4347 1142.16 39.0667 1141.46 45.52C1140.76 51.856 1140.4 58.6613 1140.4 65.936C1140.4 74.2667 1140.64 81.7173 1141.11 88.288C1141.69 94.8587 1142.93 100.432 1144.8 105.008C1146.68 109.584 1149.32 113.104 1152.72 115.568C1156.24 118.032 1161 119.264 1166.98 119.264C1173.79 119.264 1179.01 117.504 1182.64 113.984C1186.4 110.464 1189.04 106.064 1190.56 100.784C1192.21 95.3867 1193.15 89.5787 1193.38 83.36C1193.61 77.1413 1193.73 71.3333 1193.73 65.936ZM1295.03 130L1255.78 19.824V130H1242.41V2.75199H1264.93L1304.18 112.928V2.75199H1317.56V130H1295.03Z" fill="#E2E8F0"/>
</svg>
