<svg width="12" height="13" viewBox="0 0 12 13" fill="none" xmlns="http://www.w3.org/2000/svg">
<path d="M6.42853 0H7.85703V4.13567L8.36569 4.61133H11.4284V5.80943H7.52699L6.55918 4.73648L6.42853 4.618V0Z" fill="#A0AEC0"/>
<path fill-rule="evenodd" clip-rule="evenodd" d="M0.142822 0H4.5446L5.23274 0.745117H5.2357L5.30142 0.819489L5.5714 1.11182H5.55976L5.5714 1.125V2.29555L5.01266 2.82604L5.5714 3.45699V4.6181L5.56817 4.62114L5.5714 4.62109L4.4857 5.81019H0.142822V0ZM1.49854 1.125H3.94426L4.2128 1.42294V2.03931L3.94426 2.29555H1.49854V1.125ZM1.49854 4.6181H3.94426L4.2128 4.3559V3.76537L3.94426 3.45699H1.49854V4.6181Z" fill="#A0AEC0"/>
<path d="M0 6.7041H1.42858V10.8401L1.95001 11.4051H3.62144L4.14282 10.8016V6.7041H5.57142L5.5714 11.4051L4.6518 12.5224H0.94643L0 11.4051V6.7041Z" fill="#A0AEC0"/>
<path fill-rule="evenodd" clip-rule="evenodd" d="M6.42853 6.7041V12.5135H7.85703V10.2316H10.3285L10.6142 10.4878V12.5138H11.9999V10.2316L11.4077 9.70146L11.9999 9.07123V7.91346L11.9828 7.89759L11.991 7.8979L10.9128 6.7041H6.42853ZM10.6085 8.76283V8.64062H10.6142V8.16816L10.3285 7.91346H7.85703V9.07123H10.3228L10.6085 8.76283Z" fill="#A0AEC0"/>
</svg>
