<svg width="15" height="15" viewBox="0 0 15 15" fill="none" xmlns="http://www.w3.org/2000/svg">
<path d="M14.8347 10.0834V9.3104C14.8347 9.2389 14.7657 9.1871 14.6978 9.2069L11.0473 10.2622C11.0275 10.2671 11.0103 10.2783 10.9967 10.2931C10.608 10.7224 10.2773 11.0113 10.1871 11.0902L10.1794 11.0969C9.9525 11.2892 9.6713 11.394 9.3755 11.394H8.0538V10.0464H9.1043C9.1313 10.0464 9.1573 10.0366 9.1769 10.0194L9.3125 9.8948C9.3706 9.8418 9.4396 9.7777 9.5222 9.6951C9.52961 9.68768 9.53714 9.68017 9.54475 9.67257C9.58777 9.62963 9.63367 9.58382 9.6787 9.5336C9.733 9.4806 9.786 9.4215 9.8353 9.36341C9.918 9.2747 9.9969 9.1822 10.0794 9.0848C10.1387 9.0208 10.1929 8.948 10.2459 8.87521C10.305 8.8062 10.363 8.7285 10.4173 8.6545C10.4375 8.62477 10.4591 8.59468 10.4811 8.56393C10.502 8.53482 10.5233 8.5051 10.5443 8.4745C10.5837 8.4154 10.6231 8.3525 10.6564 8.2933C10.7599 8.13301 10.8475 7.96161 10.9215 7.79031C10.9559 7.71589 10.9834 7.63759 11.01 7.56166C11.013 7.55321 11.0159 7.54479 11.0189 7.5364C11.0485 7.4488 11.0731 7.36621 11.0917 7.2786C11.136 7.0727 11.1459 6.8681 11.1262 6.6634C11.1213 6.5993 11.1163 6.5364 11.1015 6.4773V6.4674C11.0966 6.4255 11.0867 6.3786 11.0731 6.3355C11.0287 6.13581 10.9597 5.93602 10.8722 5.74C10.8426 5.66724 10.8081 5.59328 10.7748 5.52549C10.6959 5.37877 10.6133 5.23204 10.5196 5.09026C10.5008 5.06033 10.4801 5.03001 10.4593 4.99974C10.4434 4.9764 10.4274 4.95308 10.4124 4.93001C10.3535 4.83924 10.2873 4.7517 10.2231 4.66675C10.208 4.64668 10.1929 4.62677 10.1781 4.60699C10.1396 4.55644 10.0974 4.50589 10.055 4.45501C10.0322 4.4277 10.0093 4.40029 9.9869 4.37272C9.9229 4.29504 9.8599 4.22108 9.7959 4.14834C9.5666 3.88943 9.3262 3.65518 9.1116 3.45546C9.0722 3.41601 9.029 3.37654 8.9846 3.33834C8.8182 3.18668 8.6666 3.05476 8.5395 2.95244C8.50182 2.92341 8.46795 2.89479 8.43638 2.86812C8.41434 2.84949 8.39341 2.83181 8.3731 2.8156C8.33536 2.78748 8.30255 2.76247 8.27487 2.74137C8.25641 2.72731 8.24024 2.71498 8.2264 2.70462C8.2166 2.69722 8.2055 2.6923 8.1943 2.68858L8.0538 2.64916V1.4853C8.0538 1.29544 7.9774 1.1253 7.8553 1.00076C7.7332 0.876245 7.5631 0.799805 7.3757 0.799805C7.0009 0.799805 6.6976 1.1068 6.6976 1.4853V2.2694L6.6274 2.2497L6.4362 2.19544L6.2625 2.14736C6.2625 2.14736 6.2599 2.14612 6.2575 2.14612H6.2538L4.9346 1.78858C4.87666 1.77256 4.82734 1.83544 4.85693 1.88844L5.0677 2.27804C5.07974 2.30805 5.09493 2.33805 5.11055 2.36888C5.1206 2.38874 5.13082 2.40894 5.1405 2.4297C5.175 2.49872 5.2095 2.57146 5.2428 2.6442C5.2724 2.70832 5.302 2.7712 5.3365 2.84024C5.35103 2.87275 5.36584 2.90564 5.38087 2.93901C5.43596 3.06133 5.49388 3.18995 5.551 3.32848C5.6004 3.4456 5.6497 3.56273 5.6928 3.68478C5.8112 3.99177 5.9234 4.3197 6.0208 4.6563C6.04495 4.73139 6.06425 4.80405 6.08381 4.87768C6.09219 4.90924 6.10062 4.94097 6.1095 4.97314L6.1231 5.0323C6.1625 5.1889 6.1971 5.34424 6.2218 5.50082C6.2415 5.60806 6.2599 5.71041 6.2698 5.81396C6.2846 5.93108 6.2994 6.04821 6.3043 6.16531C6.3142 6.2726 6.3192 6.3848 6.3192 6.4921C6.3192 6.7658 6.2945 7.0296 6.2365 7.2786C6.23245 7.29347 6.22841 7.30855 6.22433 7.32376C6.20847 7.38293 6.19207 7.44414 6.1725 7.50301C6.15432 7.56747 6.13078 7.63189 6.10634 7.69876C6.09758 7.72275 6.08869 7.74706 6.0799 7.7718C6.07816 7.77648 6.07642 7.78117 6.07468 7.78586C6.0567 7.83436 6.03841 7.88368 6.0158 7.932C5.8938 8.2255 5.7421 8.5177 5.5856 8.7915C5.3562 9.1971 5.1257 9.5533 4.96418 9.7827C4.95463 9.797 4.9453 9.81064 4.9363 9.82379C4.92441 9.84118 4.91308 9.85774 4.90256 9.87391C4.85202 9.94541 4.90378 10.0464 4.9913 10.0464H6.6976V11.394H4.97158C4.50802 11.394 4.07897 11.1315 3.87185 10.711C3.7646 10.5001 3.72266 10.2684 3.74734 10.0415C3.75348 9.9738 3.70294 9.90961 3.63392 9.90961H0.147299C0.088099 9.90961 0.0400391 9.9577 0.0400391 10.0169V10.0884C0.0400391 12.3126 1.83636 14.115 4.05308 14.115H10.3075C11.48 14.115 12.1456 13.0467 12.7999 11.9966C12.9823 11.7038 13.1638 11.4125 13.3552 11.1462C13.6992 10.6678 14.5265 10.2881 14.7682 10.1845C14.8075 10.1673 14.8347 10.1278 14.8347 10.0834Z" fill="#A0AEC0"/>
<path d="M0.971736 8.322L0.919977 8.4034C0.874357 8.4737 0.924897 8.5674 1.0112 8.5674H4.22164C4.2574 8.5674 4.29068 8.5502 4.31041 8.5206C4.35234 8.4564 4.3918 8.3899 4.42753 8.322C4.70494 7.856 4.95152 7.3518 5.0415 6.9795C5.2523 6.0745 4.80234 4.62092 4.28082 3.45215C4.2463 3.37448 4.13905 3.3671 4.09342 3.43859L0.971736 8.322Z" fill="#A0AEC0"/>
</svg>
